<?xml version="1.0" encoding="UTF-8"?>
<svg id="Layer_1" xmlns="http://www.w3.org/2000/svg" version="1.1" viewBox="0 0 432 432">
  <!-- Generator: Adobe Illustrator 29.5.1, SVG Export Plug-In . SVG Version: 2.1.0 Build 141)  -->
  <defs>
    <style>
      .st0 {
        fill: #48dd7f;
      }
    </style>
  </defs>
  <path class="st0" d="M36.58,416.35c-3.51,0-6.84-.74-9.99-2.22-5.55-2.4-9.06-6.47-10.36-12.02-3.14-12.76,4.99-32.37,22.01-53.65,31.82-39.59,94.9-54.02,95.46-54.2l4.44-.92,2.03-3.14,29.23-6.84c24.6-5.73,65.3-14.06,76.4-14.06h24.97l-16.83-18.5c-.19-.19-23.31-25.9-31.45-42.18-4.62-9.06-11.84-21.27-22.94-21.27-2.96,0-5.36.92-6.66,1.85l-3.51,2.03-1.29,3.7c-10.36,29.41-24.42,64.56-29.23,69.74l-11.84,11.84c13.87-29.23,40.7-93.42,44.4-101.93l2.03-4.99-2.59-4.81c-24.97-44.4-27.19-69.37-28.67-84.17-.37-4.25-.74-7.95-1.48-11.28-1.29-6.1,1.48-28.67,12.39-43.1,4.99-6.66,10.91-10.17,17.57-10.54h1.48c4.99,0,9.06,1.66,12.39,5.18,7.21,7.4,15.54,26.08,14.43,74-.19,11.65-11.28,47.91-18.31,68.08l-1.66,4.62,7.58,13.87,14.98,16.65c12.76,19.79,57.16,63.82,59.01,65.67l3.51,3.51,4.99-.37s6.29-.37,15.72-.37c15.35,0,37.37,1.11,55.87,6.29l4.07,1.11c37,10.36,52.91,17.2,51.43,39.59-1.11,14.61-19.61,17.76-35.15,17.76h0c-11.84,0-25.9-2.03-37.55-5.36-20.35-5.73-51.06-35.89-61.42-46.99l-3.51-3.7-4.99.19c-.74,0-18.68.55-54.39,4.07-36.63,3.51-75.29,16.28-76.77,16.83l-2.4.74-1.85,1.85c-.92.92-3.88,3.88-38.85,61.05-21.64,36.26-44.03,56.42-62.71,56.42ZM98,314.05c-27.56,13.5-70.85,45.51-76.4,70.67-2.03,8.88.92,14.98,3.7,18.5,3.51,4.44,8.51,6.84,14.24,6.84,25.53,0,62.16-57.53,62.53-58.09,8.51-13.87,11.47-24.23,11.65-25.34l6.29-23.49-22.01,10.91ZM326.46,272.05c-7.58,0-11.47.74-12.21.92l-19.61,4.25,14.06,14.43c21.27,21.83,43.29,34.41,63.64,36.07,2.96.19,5.92.37,8.51.37,13.13,0,21.46-3.14,25.34-9.8,2.77-4.62,2.77-10.17,0-15.35-5.55-10.36-23.49-23.12-51.06-27.93-10.54-2.03-20.35-2.96-28.67-2.96ZM193.82,24.72c-7.58,0-20.9,5.73-24.97,44.77-2.77,25.53,13.87,64.19,15.72,68.63l12.02,27.75,8.69-28.86c.19-.92,6.29-20.72,8.69-37.18,1.66-10.17.37-27.01-1.11-39.59-3.51-26.64-8.14-32.93-15.35-34.96-1.29-.37-2.59-.55-3.7-.55Z"/>
  <path class="st0" d="M192.16,4.55h-2.03c-33.67,2.03-43.1,53.09-40.14,66.97s-1.48,40.7,31.26,98.79c0,0-41.62,99.71-50.13,113.03,0,0-66.97,14.8-101.75,58.09-34.78,43.1-29.78,72.89-7.4,82.88,4.44,2.03,9.43,3.14,14.61,3.14,20.35,0,45.51-17.02,72.7-61.6,34.22-56.05,37.18-59.01,37.18-59.01,0,0,38.66-12.95,74.37-16.28,35.7-3.51,53.65-3.88,53.65-3.88,0,0,38.66,42.18,66.41,50.13,10.73,3.14,25.9,5.73,40.51,5.73,22.94,0,44.77-6.47,46.25-28.12,2.4-35.15-30.71-42.92-63.45-52.17-19.98-5.55-43.47-6.66-59.01-6.66-9.99,0-16.46.37-16.46.37,0,0-46.62-46.06-58.09-64.56l-14.8-16.28-4.62-8.51s18.5-53.83,18.87-71.41c1.11-46.43-5.92-90.65-37.92-90.65h0ZM194.56,133.68s-17.39-39.59-14.8-62.9c2.4-22.01,8.69-34.78,14.06-34.78.37,0,.55,0,.92.18,5.36,1.48,10.91,46.06,8.51,61.97-2.77,15.54-8.69,35.52-8.69,35.52h0ZM166.82,272.42c8.88-8.88,31.82-73.81,31.82-73.81,0,0,.37-.19.92-.19,1.85,0,6.29,1.66,12.95,14.98,8.88,17.94,33.3,44.58,33.3,44.58-16.46.19-78.99,14.43-78.99,14.43h0ZM380.85,317.01c-2.4,0-4.81-.19-7.58-.37-17.94-1.48-37.74-13.32-56.61-32.74,0,0,3.14-.74,9.8-.74,6.1,0,14.8.55,26.82,2.59,25.34,4.44,39.59,15.91,43.1,22.38,2.96,5.55-2.96,8.88-15.54,8.88h0ZM39.36,399.14c-2.22,0-4.07-.74-5.55-2.59-11.84-14.8,31.82-54.02,69-72.33,0,0-2.4,9.43-10.36,22.38-7.03,11.1-37.55,52.54-53.09,52.54h0Z"/>
</svg>