<?xml version="1.0" encoding="UTF-8"?>
<svg id="Layer_1" xmlns="http://www.w3.org/2000/svg" xmlns:xlink="http://www.w3.org/1999/xlink" version="1.1" viewBox="0 0 432 432">
  <!-- Generator: Adobe Illustrator 29.5.1, SVG Export Plug-In . SVG Version: 2.1.0 Build 141)  -->
  <defs>
    <style>
      .st0 {
        fill: #48dd7f;
      }

      .st1 {
        fill: url(#linear-gradient);
      }
    </style>
    <linearGradient id="linear-gradient" x1="321.84" y1="434.36" x2="380.97" y2="493.48" gradientTransform="translate(0 -360)" gradientUnits="userSpaceOnUse">
      <stop offset=".18" stop-color="#48dd7f"/>
      <stop offset="1" stop-color="#fff" stop-opacity="0"/>
    </linearGradient>
  </defs>
  <path class="st1" d="M317,79.2s6.8,19.6,24.7,39.6c18,20,27.6,26.2,27.6,26.2l1.2-47.2-53.5-18.6Z"/>
  <path class="st0" d="M297.4,16.3h0s-1.4,19.1-2.8,36.2c-1.8,22.4,2.8,32.7,14.6,35.7,5.8,1.5,16.1,4.8,26.5,6.1,17.1,2.1,35,3.5,35,3.5l-19.1-22.8c-15.9-17.2-46-49.1-54.2-58.7Z"/>
  <g>
    <path class="st0" d="M110.3,283.6c-1.9,0-3.7-.4-5.4-1.2-3-1.3-4.9-3.5-5.6-6.5-1.7-6.9,2.7-17.5,11.9-29,17.2-21.4,51.3-29.2,51.6-29.3l2.4-.5,1.1-1.7,15.8-3.7c13.3-3.1,35.3-7.6,41.3-7.6h13.5l-9.1-10c-.1-.1-12.6-14-17-22.8-2.5-4.9-6.4-11.5-12.4-11.5-1.6,0-2.9.5-3.6,1l-1.9,1.1-.7,2c-5.6,15.9-13.2,34.9-15.8,37.7l-6.4,6.4c7.5-15.8,22-50.5,24-55.1l1.1-2.7-1.4-2.6c-13.5-24-14.7-37.5-15.5-45.5-.2-2.3-.4-4.3-.8-6.1-.7-3.3.8-15.5,6.7-23.3,2.7-3.6,5.9-5.5,9.5-5.7h.8c2.7,0,4.9.9,6.7,2.8,3.9,4,8.4,14.1,7.8,40-.1,6.3-6.1,25.9-9.9,36.8l-.9,2.5,4.1,7.5,8.1,9c6.9,10.7,30.9,34.5,31.9,35.5l1.9,1.9,2.7-.2s3.4-.2,8.5-.2c8.3,0,20.2.6,30.2,3.4l2.2.6c20,5.6,28.6,9.3,27.8,21.4-.6,7.9-10.6,9.6-19,9.6h0c-6.4,0-14-1.1-20.3-2.9-11-3.1-27.6-19.4-33.2-25.4l-1.9-2-2.7.1c-.4,0-10.1.3-29.4,2.2-19.8,1.9-40.7,8.8-41.5,9.1l-1.3.4-1,1c-.5.5-2.1,2.1-21,33-11.7,19.6-23.8,30.5-33.9,30.5ZM143.5,228.3c-14.9,7.3-38.3,24.6-41.3,38.2-1.1,4.8.5,8.1,2,10,1.9,2.4,4.6,3.7,7.7,3.7,13.8,0,33.6-31.1,33.8-31.4,4.6-7.5,6.2-13.1,6.3-13.7l3.4-12.7-11.9,5.9ZM267,205.6c-4.1,0-6.2.4-6.6.5l-10.6,2.3,7.6,7.8c11.5,11.8,23.4,18.6,34.4,19.5,1.6.1,3.2.2,4.6.2,7.1,0,11.6-1.7,13.7-5.3,1.5-2.5,1.5-5.5,0-8.3-3-5.6-12.7-12.5-27.6-15.1-5.7-1.1-11-1.6-15.5-1.6ZM195.3,71.9c-4.1,0-11.3,3.1-13.5,24.2-1.5,13.8,7.5,34.7,8.5,37.1l6.5,15,4.7-15.6c.1-.5,3.4-11.2,4.7-20.1.9-5.5.2-14.6-.6-21.4-1.9-14.4-4.4-17.8-8.3-18.9-.7-.2-1.4-.3-2-.3Z"/>
    <path class="st0" d="M194.4,61h-1.1c-18.2,1.1-23.3,28.7-21.7,36.2s-.8,22,16.9,53.4c0,0-22.5,53.9-27.1,61.1,0,0-36.2,8-55,31.4-18.8,23.3-16.1,39.4-4,44.8,2.4,1.1,5.1,1.7,7.9,1.7,11,0,24.6-9.2,39.3-33.3,18.5-30.3,20.1-31.9,20.1-31.9,0,0,20.9-7,40.2-8.8,19.3-1.9,29-2.1,29-2.1,0,0,20.9,22.8,35.9,27.1,5.8,1.7,14,3.1,21.9,3.1,12.4,0,24.2-3.5,25-15.2,1.3-19-16.6-23.2-34.3-28.2-10.8-3-23.5-3.6-31.9-3.6-5.4,0-8.9.2-8.9.2,0,0-25.2-24.9-31.4-34.9l-8-8.8-2.5-4.6s10-29.1,10.2-38.6c.6-25.1-3.2-49-20.5-49h0ZM195.7,130.8s-9.4-21.4-8-34c1.3-11.9,4.7-18.8,7.6-18.8.2,0,.3,0,.5.1,2.9.8,5.9,24.9,4.6,33.5-1.5,8.4-4.7,19.2-4.7,19.2h0ZM180.7,205.8c4.8-4.8,17.2-39.9,17.2-39.9,0,0,.2-.1.5-.1,1,0,3.4.9,7,8.1,4.8,9.7,18,24.1,18,24.1-8.9.1-42.7,7.8-42.7,7.8h0ZM296.4,229.9c-1.3,0-2.6-.1-4.1-.2-9.7-.8-20.4-7.2-30.6-17.7,0,0,1.7-.4,5.3-.4,3.3,0,8,.3,14.5,1.4,13.7,2.4,21.4,8.6,23.3,12.1,1.6,3-1.6,4.8-8.4,4.8h0ZM111.8,274.3c-1.2,0-2.2-.4-3-1.4-6.4-8,17.2-29.2,37.3-39.1,0,0-1.3,5.1-5.6,12.1-3.8,6-20.3,28.4-28.7,28.4h0Z"/>
  </g>
  <g>
    <g>
      <path class="st0" d="M160.2,372.8v-64.1c5-.6,10.8-.8,17.3-.8,9,0,15.6,1.6,19.6,4.8l.1.1c3.6,2.8,5.8,7.6,5.8,12.9,0,5.8-1.8,10.7-5,13.7-4.5,4.3-11.7,6.5-20.7,6.5-1.9,0-3.6-.1-5-.3l-6.9-1.1v28.3h-5.2ZM178.4,309c-3.4,0-6.4.3-8.4.7l-4.7,1.1v32.1l4.7,1.1c1.9.4,4,.6,7.1.6,12.5,0,20.8-7.4,20.8-18.4,0-10.5-7.7-17.2-19.5-17.2Z"/>
      <path class="st0" d="M177.5,301.9c-10.5,0-18,.7-23.3,1.6v75.3h17.1v-27.3c1.6.2,3.6.4,5.9.4,10.1,0,18.9-2.6,24.8-8.1,4.5-4.2,7-10.6,7-18.1s-3.2-13.9-8.1-17.7c-5.1-4.1-12.8-6.1-23.4-6.1h0ZM177.1,338.6c-2.5,0-4.3-.1-5.7-.5v-22.6c1.3-.3,3.6-.6,7-.6,8.7,0,13.5,4.2,13.5,11.2,0,7.8-5.7,12.5-14.8,12.5h0Z"/>
    </g>
    <g>
      <path class="st0" d="M239.7,373.6c-5.7,0-10.2-.2-13.6-.5v-64.4c5.2-.6,11.2-.9,17.3-.9,12.7,0,21.3,2.2,27.7,7,7,5.2,10.5,13.3,10.5,23.9,0,11.5-3.6,20.6-10.5,26.3-6.7,5.7-17.6,8.6-31.4,8.6ZM245.1,309.2c-3.6,0-6.8.3-9.1.8l-4.7,1v59.8l4.9.9c2,.4,4.5.4,7.1.4h.4c9.4,0,17.3-2.9,22.8-8.3,5.8-5.8,8.8-14,8.8-24.4,0-9.2-2.8-16.8-8-22.1-5.4-5.3-13-8.1-22.2-8.1Z"/>
      <path class="st0" d="M243.3,301.9c-8.7,0-16.9.6-23.3,1.6v75c4.2.6,10.6,1.1,19.6,1.1,14.9,0,27.2-3.2,35.2-9.9,7.3-6.2,12.6-16.3,12.6-30.9,0-13.5-5-22.8-12.9-28.7-7.2-5.6-16.7-8.2-31.2-8.2h0ZM243.7,366.1h-.4c-2.1,0-4.5,0-6-.3v-50c1.5-.3,4.1-.7,7.8-.7,14.8,0,24.1,8.3,24.1,24.2,0,18.2-10.1,26.8-25.5,26.8h0Z"/>
    </g>
    <g>
      <polygon class="st0" points="304.9 372.8 304.9 308.5 339.5 308.5 339.5 310.6 310.2 310.6 310.2 340.1 337.6 340.1 337.6 342.1 310.2 342.1 310.2 372.8 304.9 372.8"/>
      <polygon class="st0" points="345.5 302.5 298.9 302.5 298.9 378.8 316.2 378.8 316.2 348.1 343.6 348.1 343.6 334.1 316.2 334.1 316.2 316.6 345.5 316.6 345.5 302.5"/>
    </g>
  </g>
  <path class="st0" d="M297.05,28.25l15.7,24.4,1,1.5,1.3,1.1c.9,1,2.8,4.5,4.2,7,4.6,8.2,10.8,19.4,21.4,24.8l24.2,17.1v290.3c0,5.2-4.3,9.4-9.5,9.4H89.15c-5.2,0-9.5-4.3-9.5-9.5V37.85c0-5.2,4.3-9.5,9.5-9.5h207.9M303.65,16.25H89.15c-11.9,0-21.5,9.6-21.5,21.5v356.5c0,11.9,9.6,21.5,21.5,21.5h266.2c11.9,0,21.5-9.6,21.5-21.4V97.95l-30.1-21.2c-12.2-5.5-17.9-25.5-23.9-30.5l-19.2-30h0Z"/>
</svg>